<?xml version="1.0" encoding="utf-8"?>
<!-- Generator: Adobe Illustrator 15.1.0, SVG Export Plug-In . SVG Version: 6.00 Build 0)  -->
<!DOCTYPE svg PUBLIC "-//W3C//DTD SVG 1.1//EN" "http://www.w3.org/Graphics/SVG/1.1/DTD/svg11.dtd">
<svg version="1.1" id="Layer_1" xmlns="http://www.w3.org/2000/svg" xmlns:xlink="http://www.w3.org/1999/xlink" x="0px" y="0px"
	 width="197.742px" height="57.954px" viewBox="0 0 197.742 57.954" enable-background="new 0 0 197.742 57.954"
	 xml:space="preserve">
<g>
	<g>
		<path fill="#FFFFFF" d="M76.989,57.925h-1.313l-4.223-17.662v17.69h-1.17V37.98h1.883l4.194,17.662l4.166-17.662h1.884v19.974
			h-1.256V40.206L76.989,57.925z"/>
		<path fill="#FFFFFF" d="M86.608,53.531l-0.998,4.423h-1.198l4.365-20.003h1.912l4.451,20.003h-1.313l-0.999-4.423H86.608z
			 M86.809,52.39h5.821L89.69,39.463L86.809,52.39z"/>
		<path fill="#FFFFFF" d="M105.672,42.859v1.484h-1.255v-1.57c0-2.14-0.828-3.766-3.025-3.766c-2.196,0-3.024,1.626-3.024,3.766
			V53.16c0,2.141,0.828,3.738,3.024,3.738c2.197,0,3.025-1.598,3.025-3.738v-4.309h-2.654v-1.198h3.909v5.421
			c0,2.883-1.255,5.051-4.309,5.051c-3.053,0-4.309-2.168-4.309-5.051V42.859c0-2.882,1.256-5.051,4.309-5.051
			C104.417,37.808,105.672,39.977,105.672,42.859z"/>
		<path fill="#FFFFFF" d="M109.755,53.531l-0.998,4.423h-1.198l4.365-20.003h1.912l4.451,20.003h-1.313l-0.999-4.423H109.755z
			 M109.955,52.39h5.821l-2.939-12.927L109.955,52.39z"/>
		<path fill="#FFFFFF" d="M129.104,57.954h-8.988v-1.198l7.733-17.577h-7.362V37.98h8.731v1.227l-7.732,17.549h7.618V57.954z"/>
		<path fill="#FFFFFF" d="M132.674,37.98v19.974h-1.313V37.98H132.674z"/>
		<path fill="#FFFFFF" d="M136.155,57.954h-1.198V37.98h1.712l5.992,16.863V37.98h1.198v19.974h-1.455l-6.249-17.806V57.954z"/>
		<path fill="#FFFFFF" d="M152.879,47.225v1.198h-5.45v8.332h6.563v1.198h-7.875V37.98h7.875v1.198h-6.563v8.047H152.879z"/>
	</g>
	<g>
		<path fill="#FFFFFF" d="M76.973,3.294c4.183,0,6.102,2.533,6.102,6.678v13.546c0,4.106-1.919,6.639-6.102,6.639h-6.294V3.294
			H76.973z M76.934,27.433c2.149,0,3.186-1.343,3.186-3.799V9.818c0-2.456-1.036-3.799-3.224-3.799h-3.224v21.414H76.934z"/>
		<path fill="#FFFFFF" d="M88.869,3.294v26.863h-2.993V3.294H88.869z"/>
		<path fill="#FFFFFF" d="M97.926,3.294c4.222,0,5.986,2.149,5.986,6.14v2.188c0,2.955-1.036,4.797-3.338,5.526
			c2.456,0.729,3.377,2.725,3.377,5.603v4.183c0,1.19,0.038,2.303,0.537,3.224h-3.031c-0.346-0.768-0.499-1.458-0.499-3.262v-4.222
			c0-3.032-1.42-3.991-3.915-3.991h-2.11v11.475h-2.993V3.294H97.926z M97.158,15.958c2.38,0,3.8-0.768,3.8-3.684V9.703
			c0-2.418-0.883-3.684-3.108-3.684h-2.917v9.939H97.158z"/>
		<path fill="#FFFFFF" d="M116.615,15.19v2.687h-6.563v9.556h8.059v2.725H107.06V3.294h11.052v2.725h-8.059v9.171H116.615z"/>
		<path fill="#FFFFFF" d="M132.733,9.78v2.417h-2.84V9.626c0-2.417-0.96-3.876-3.147-3.876c-2.148,0-3.146,1.458-3.146,3.876v14.199
			c0,2.417,0.998,3.876,3.146,3.876c2.188,0,3.147-1.458,3.147-3.876v-3.492h2.84v3.339c0,4.068-1.919,6.754-6.063,6.754
			c-4.106,0-6.025-2.686-6.025-6.754V9.78c0-4.068,1.919-6.754,6.025-6.754C130.814,3.025,132.733,5.712,132.733,9.78z"/>
		<path fill="#FFFFFF" d="M139.372,30.157V6.019h-4.95V3.294h12.895v2.725h-4.951v24.138H139.372z"/>
		<path fill="#FFFFFF" d="M152.382,3.294v26.863h-2.993V3.294H152.382z"/>
		<path fill="#FFFFFF" d="M155.221,9.78c0-4.106,2.034-6.754,6.141-6.754c4.145,0,6.178,2.648,6.178,6.754v13.892
			c0,4.068-2.033,6.754-6.178,6.754c-4.106,0-6.141-2.686-6.141-6.754V9.78z M158.176,23.825c0,2.456,1.036,3.876,3.186,3.876
			c2.188,0,3.185-1.42,3.185-3.876V9.626c0-2.417-0.997-3.876-3.185-3.876c-2.149,0-3.186,1.458-3.186,3.876V23.825z"/>
		<path fill="#FFFFFF" d="M173.027,30.157h-2.686V3.294h3.799l6.217,19.418V3.294h2.648v26.863h-3.109l-6.869-21.721V30.157z"/>
		<path fill="#FFFFFF" d="M197.704,9.741v0.729h-2.84V9.588c0-2.418-0.921-3.838-3.07-3.838s-3.07,1.42-3.07,3.799
			c0,6.025,9.019,6.601,9.019,14.161c0,4.068-1.957,6.716-6.063,6.716s-6.024-2.648-6.024-6.716v-1.535h2.801v1.688
			c0,2.417,0.998,3.837,3.147,3.837c2.148,0,3.146-1.42,3.146-3.837c0-5.987-8.979-6.563-8.979-14.123
			c0-4.145,1.918-6.716,5.948-6.716C195.785,3.025,197.704,5.673,197.704,9.741z"/>
	</g>
	<g>
		<g>
			<path fill="#009F2A" d="M40.777,7.602c1.518,2.669,2.8,5.808,3.74,9.23c5.377-0.547,9.341-1.256,11.269-1.646
				c-2.181-4.004-5.283-7.442-8.991-10.063l-0.266,0.179C46.409,5.389,44.547,6.601,40.777,7.602z"/>
		</g>
		<g>
			<path fill="#B4E3F9" d="M46.198,28.554h13.173c-0.125-4.207-1.114-8.187-2.808-11.78c-1.748,0.365-5.861,1.131-11.615,1.734
				C45.686,21.703,46.139,25.1,46.198,28.554z"/>
		</g>
		<g>
			<path fill="#FF383F" d="M39.847,6.058c2.908-0.717,4.671-1.572,5.365-1.959C41.799,1.995,37.933,0.575,33.784,0
				C35.98,1.204,38.054,3.303,39.847,6.058z"/>
		</g>
		<g>
			<path fill="#009F2A" d="M28.828,8.919c-3.431-0.054-6.271-0.405-8.547-0.883c-1.497,2.562-2.763,5.632-3.704,8.989
				c3.725,0.309,7.88,0.53,12.251,0.556V8.919z"/>
		</g>
		<g>
			<path fill="#37A4DC" d="M42.787,17.001c-0.945-3.363-2.219-6.434-3.721-8.995c-2.284,0.477-5.122,0.845-8.532,0.911v8.664
				C35.06,17.554,39.198,17.326,42.787,17.001z"/>
		</g>
		<g>
			<path fill="#37A4DC" d="M18.574,7.632c-3.803-1.013-5.629-2.248-5.753-2.343L12.573,5.12c-3.78,2.678-6.927,6.2-9.124,10.31
				c2.603,0.421,6.576,0.992,11.391,1.443C15.779,13.448,17.051,10.306,18.574,7.632z"/>
		</g>
		<g>
			<path fill="#B4E3F9" d="M25.576,0c-4.145,0.575-8.012,2-11.436,4.103c0.682,0.388,2.426,1.26,5.35,1.988
				C21.296,3.317,23.377,1.213,25.576,0z"/>
		</g>
		<g>
			<path fill="#FF383F" d="M28.828,0.633c-2.693,0.389-5.325,2.546-7.56,5.852c2.057,0.394,4.579,0.683,7.56,0.726V0.633z"/>
		</g>
		<g>
			<path fill="#B4E3F9" d="M38.081,6.455c-2.236-3.284-4.854-5.433-7.547-5.822v6.568C33.497,7.149,36.021,6.856,38.081,6.455z"/>
		</g>
		<g>
			<path fill="#FF383F" d="M16.689,41.802c0.977,3.328,2.286,6.398,3.797,8.971c2.252-0.467,5.028-0.807,8.342-0.867V41.24
				C24.348,41.26,20.252,41.486,16.689,41.802z"/>
		</g>
		<g>
			<path fill="#B4E3F9" d="M30.534,49.9c3.337,0.047,6.122,0.389,8.372,0.844c0.246-0.43,0.503-0.844,0.741-1.295
				c1.249-2.357,2.267-4.953,3.068-7.66c-3.714-0.303-7.832-0.528-12.182-0.549V49.9z"/>
		</g>
		<g>
			<path fill="#37A4DC" d="M30.534,58.173c2.447-0.398,5.054-2.498,7.371-5.873c-2.024-0.381-4.479-0.651-7.371-0.69V58.173z"/>
		</g>
		<g>
			<path fill="#009F2A" d="M21.477,52.319c2.229,3.28,4.798,5.448,7.352,5.854V51.61C25.956,51.664,23.503,51.939,21.477,52.319z"/>
		</g>
		<g>
			<path fill="#B4E3F9" d="M18.689,51.186c-1.529-2.678-2.824-5.81-3.78-9.214c-5.423,0.551-9.401,1.268-11.335,1.655
				c2.186,4.013,5.29,7.445,8.994,10.062l0.263-0.17C12.963,53.429,14.85,52.191,18.689,51.186z"/>
		</g>
		<g>
			<path fill="#37A4DC" d="M19.621,52.727c-2.961,0.726-4.76,1.599-5.472,1.991c3.446,2.123,7.358,3.555,11.555,4.12
				C23.517,57.625,21.438,55.504,19.621,52.727z"/>
		</g>
		<g>
			<path fill="#009F2A" d="M33.634,58.841c4.206-0.562,8.129-2,11.587-4.131c-0.691-0.395-2.481-1.293-5.501-2.024
				C37.845,55.57,35.766,57.663,33.634,58.841z"/>
		</g>
		<g>
			<path fill="#37A4DC" d="M46.198,30.262c-0.066,3.328-0.513,6.728-1.306,10.001c5.079,0.482,9.217,1.09,11.791,1.516
				c1.616-3.523,2.563-7.413,2.688-11.517H46.198z"/>
		</g>
		<g>
			<path fill="#FF383F" d="M41.163,50.24c-0.172,0.32-0.35,0.601-0.529,0.904c3.913,1.018,5.789,2.293,5.913,2.379l0.236,0.172
				c3.787-2.67,6.932-6.195,9.131-10.309c-2.611-0.431-6.624-1-11.478-1.451C43.603,44.88,42.511,47.701,41.163,50.24z"/>
		</g>
		<g>
			<path fill="#B4E3F9" d="M28.828,19.286c-4.543-0.022-8.848-0.26-12.699-0.589c-0.753,3.143-1.186,6.484-1.25,9.857h13.949V19.286
				z"/>
		</g>
		<g>
			<path fill="#009F2A" d="M30.534,39.527c4.519,0.024,8.805,0.257,12.64,0.584c0.798-3.223,1.244-6.568,1.319-9.849H30.534V39.527z
				"/>
		</g>
		<g>
			<path fill="#FF383F" d="M30.534,19.286v9.268h13.959c-0.07-3.38-0.506-6.732-1.265-9.877
				C39.533,19.019,35.244,19.263,30.534,19.286z"/>
		</g>
		<g>
			<path fill="#37A4DC" d="M28.828,30.262H14.879c0.068,3.331,0.551,6.689,1.349,9.872c3.679-0.344,7.943-0.583,12.601-0.607V30.262
				z"/>
		</g>
		<g>
			<path fill="#FF383F" d="M14.414,18.546c-5.063-0.479-9.166-1.087-11.736-1.514C1.063,20.561,0.115,24.452,0,28.554h13.168
				C13.228,25.113,13.667,21.731,14.414,18.546z"/>
		</g>
		<g>
			<path fill="#009F2A" d="M13.168,30.262H0c0.117,4.208,1.105,8.188,2.802,11.776c1.753-0.361,5.878-1.129,11.665-1.734
				C13.691,37.089,13.232,33.695,13.168,30.262z"/>
		</g>
	</g>
</g>
</svg>
